<svg xmlns="http://www.w3.org/2000/svg" viewBox="0 0 24 24" role="img" aria-label="server"><title>server</title><style>.tds-glyph{fill:var(--tds-glyph,#e6e8e9)}@media (prefers-color-scheme:light){.tds-glyph{fill:var(--tds-glyph,#1d1f27)}}</style><path class="tds-glyph" fill="#e6e8e9" d="M4 1h16a1 1 0 0 1 1 1v5a1 1 0 0 1-1 1H4a1 1 0 0 1-1-1V2a1 1 0 0 1 1-1zm0 9h16a1 1 0 0 1 1 1v5a1 1 0 0 1-1 1H4a1 1 0 0 1-1-1v-5a1 1 0 0 1 1-1zm13 2.5a1 1 0 1 0 0 2 1 1 0 0 0 0-2zm0-9a1 1 0 1 0 0 2 1 1 0 0 0 0-2zM4 19h16v2H4v-2z"/></svg>
