<svg xmlns="http://www.w3.org/2000/svg" viewBox="-40 -29 80 53" role="img" aria-label="Ec (axis)"><title>Ec (axis)</title><style>.tds-f0{fill:var(--tds-c0,#292d3a)}.tds-s0{stroke:var(--tds-c0,#292d3a)}@media (prefers-color-scheme:light){.tds-f0{fill:var(--tds-c0,#ffffff)}.tds-s0{stroke:var(--tds-c0,#ffffff)}}</style><ellipse cx="0" cy="0" rx="36" ry="20" fill="#01a982" opacity=".06"/><rect x="-30" y="-15" width="60" height="30" rx="5" fill="#292d3a" stroke="#01a982" stroke-width="1.3" class="tds-f0"/><rect x="-29" y="-14" width="58" height="1" rx=".5" fill="rgba(255,255,255,.04)"/><polygon points="0,-8 -9,6 9,6" fill="none" stroke="#01a982" stroke-width="1.2"/><circle cx="-19" cy="-7" r="2.2" fill="#05cc93" opacity="1"/><circle cx="-13" cy="-7" r="2.2" fill="#05cc93" opacity="1"/><circle cx="13" cy="8" r="1.8" fill="#ec8c25" opacity=".6"/><circle cx="18" cy="8" r="1.8" fill="#01a982" opacity=".6"/><rect x="10" y="-12" width="17" height="16" rx="3" fill="#1a2233" stroke="#65aef9" stroke-width=".7" opacity=".95"/><line x1="18" y1="-4" x2="13" y2="-9" stroke="#65aef9" stroke-width="1" opacity=".8"/><line x1="18" y1="-4" x2="23" y2="-9" stroke="#65aef9" stroke-width="1" opacity=".8"/><line x1="18" y1="-4" x2="18" y2="1" stroke="#65aef9" stroke-width="1" opacity=".8"/><circle cx="18" cy="-4" r="2" fill="#292d3a" stroke="#65aef9" stroke-width="1" class="tds-f0"/><circle cx="13" cy="-9" r="1.3" fill="#65aef9"/><circle cx="23" cy="-9" r="1.3" fill="#65aef9"/><circle cx="18" cy="1" r="1.3" fill="#65aef9"/><rect x="-30" y="-25" width="34" height="12" rx="3" fill="#01a982" opacity=".15" stroke="#01a982" stroke-width=".5"/><text x="-27" y="-16" fill="#01a982" font-size="7" font-weight="700" letter-spacing=".5">AXIS</text></svg>
