<svg xmlns="http://www.w3.org/2000/svg" viewBox="-28 -28 56 56" role="img" aria-label="DNS Server"><title>DNS Server</title><style>.tds-f0{fill:var(--tds-c0,#292d3a)}.tds-s0{stroke:var(--tds-c0,#292d3a)}@media (prefers-color-scheme:light){.tds-f0{fill:var(--tds-c0,#ffffff)}.tds-s0{stroke:var(--tds-c0,#ffffff)}}</style><circle cx="0" cy="0" r="24" fill="#292d3a" stroke="#65aef9" stroke-width="1.2" class="tds-f0"/><rect x="-21.6" y="-23" width="43.2" height="1" rx=".5" fill="rgba(255,255,255,.04)"/><g transform="translate(-11.5,-11.5) scale(0.96)"><path d="M12 2a10 10 0 1 0 0 20 10 10 0 0 0 0-20zm-1 17.93A8 8 0 0 1 4.07 13H7v-2H4.07A8 8 0 0 1 11 4.07V7h2V4.07A8 8 0 0 1 19.93 11H17v2h2.93A8 8 0 0 1 13 19.93V17h-2v2.93z" fill="#65aef9" opacity=".85"/></g></svg>
