<svg xmlns="http://www.w3.org/2000/svg" viewBox="-28 -65.35 56 93.35" role="img" aria-label="IoT Device"><title>IoT Device</title><style>.tds-f0{fill:var(--tds-c0,#292d3a)}.tds-s0{stroke:var(--tds-c0,#292d3a)}@media (prefers-color-scheme:light){.tds-f0{fill:var(--tds-c0,#ffffff)}.tds-s0{stroke:var(--tds-c0,#ffffff)}}</style><circle cx="0" cy="0" r="24" fill="#292d3a" stroke="#65aef9" stroke-width="1.2" class="tds-f0"/><rect x="-21.6" y="-23" width="43.2" height="1" rx=".5" fill="rgba(255,255,255,.04)"/><g transform="translate(-11.5,-11.5) scale(0.96)"><path d="M9 3V1h2v2h2V1h2v2h2a2 2 0 0 1 2 2v2h2v2h-2v2h2v2h-2v2a2 2 0 0 1-2 2h-2v2h-2v-2h-2v2H9v-2H7a2 2 0 0 1-2-2v-2H3v-2h2V9H3V7h2V5a2 2 0 0 1 2-2h2zm-2 4v10h10V7H7zm2 2h6v6H9V9z" fill="#65aef9" opacity=".85"/></g><line x1="0" y1="-24" x2="0" y2="-36" stroke="#65aef9" stroke-width="1.2"/><circle cx="0" cy="-38" r="2.5" fill="#292d3a" stroke="#65aef9" stroke-width="1" class="tds-f0"/><circle cx="0" cy="-38" r="1" fill="#65aef9" opacity=".8"/><path d="M-8,-44 A10,10 0 0,1 8,-44" fill="none" stroke="#65aef9" stroke-width=".8" opacity=".5"/><path d="M-13,-48 A16,16 0 0,1 13,-48" fill="none" stroke="#65aef9" stroke-width=".6" opacity=".3"/><path d="M-18,-52 A22,22 0 0,1 18,-52" fill="none" stroke="#65aef9" stroke-width=".5" opacity=".15"/></svg>
