<svg xmlns="http://www.w3.org/2000/svg" viewBox="-42.4 -28 84.8 56" role="img" aria-label="Printer"><title>Printer</title><style>.tds-f0{fill:var(--tds-c0,#292d3a)}.tds-s0{stroke:var(--tds-c0,#292d3a)}@media (prefers-color-scheme:light){.tds-f0{fill:var(--tds-c0,#ffffff)}.tds-s0{stroke:var(--tds-c0,#ffffff)}}</style><rect x="-38.400000000000006" y="-24" width="76.80000000000001" height="48" rx="3" fill="#292d3a" stroke="#7d8a92" stroke-width="1.2" class="tds-f0"/><rect x="-34.6" y="-23" width="69.2" height="1" rx=".5" fill="rgba(255,255,255,.04)"/><g transform="translate(-11.5,-11.5) scale(0.96)"><path d="M2 4a2 2 0 0 1 2-2h16a2 2 0 0 1 2 2v16a2 2 0 0 1-2 2H4a2 2 0 0 1-2-2V4zm5.586 8L5.293 9.707l1.414-1.414L10.414 12l-3.707 3.707-1.414-1.414L7.586 12zM12 15h6v2h-6v-2z" fill="#7d8a92" opacity=".85"/></g></svg>
